<svg id="Capa_1" data-name="Capa 1" xmlns="http://www.w3.org/2000/svg" viewBox="0 0 512.1 341.4"><defs><style>.cls-1{fill:#fff;}</style></defs><path class="cls-1" d="M485.7,85.3H26.3A26.33,26.33,0,0,0,0,111.6V400.4a26.4,26.4,0,0,0,26.3,26.3H485.8a26.4,26.4,0,0,0,26.3-26.3V111.6A26.48,26.48,0,0,0,485.7,85.3ZM475.9,105,271.1,258.6a25.05,25.05,0,0,1-15.1,4.5c-5.8,0-11.4-1.7-15.1-4.5L36.1,105ZM366.5,268.8,478.1,406.6l.4.4H33.5c.1-.1.3-.2.4-.4L145.5,268.8a9.88,9.88,0,0,0-1.5-13.9,9.75,9.75,0,0,0-13.8,1.5L19.7,392.9V117.3l209.4,157c7.9,5.9,17.4,8.4,26.9,8.5a44.58,44.58,0,0,0,26.9-8.5l209.4-157V392.8L381.8,256.4a9.85,9.85,0,1,0-15.3,12.4Z" transform="translate(0 -85.3)"/></svg>