<svg id="Capa_1" data-name="Capa 1" xmlns="http://www.w3.org/2000/svg" viewBox="0 0 512.54 513.65"><defs><style>.cls-1{fill:#fff;}</style></defs><path class="cls-1" d="M499.7,377,428,305.3c-25.6-25.6-69.1-15.4-79.4,17.9-7.7,23-33.3,35.8-56.3,30.7C241.1,341.1,172,274.5,159.2,220.8c-7.7-23,7.7-48.6,30.7-56.3,33.3-10.2,43.5-53.8,17.9-79.4L136.1,13.4C115.7-4.5,84.9-4.5,67,13.4L18.4,62.1C-30.2,113.3,23.5,249,143.8,369.3S399.8,545.9,451,494.7l48.6-48.6C517.6,425.6,517.6,394.9,499.7,377Z" transform="translate(-0.57 0.03)"/></svg>